{
  "accessors": [
    {
      "bufferView": 2,
      "componentType": 5126,
      "count": 2002,
      "max": [
        0.44294750690460205,
        5.0011396408081055,
        1.7721145153045654
      ],
      "min": [
        -0.48240602016448975,
        -4.963493347167969,
        -0.6614865064620972
      ],
      "type": "VEC3"
    },
    {
      "bufferView": 2,
      "byteOffset": 24024,
      "componentType": 5126,
      "count": 2002,
      "max": [
        1.0,
        1.0,
        1.0
      ],
      "min": [
        -1.0,
        -1.0,
        -1.0
      ],
      "type": "VEC3"
    },
    {
      "bufferView": 3,
      "componentType": 5126,
      "count": 2002,
      "max": [
        1.0,
        1.0,
        1.0,
        1.0
      ],
      "min": [
        -1.0,
        -0.9972846508026123,
        -1.0,
        -1.0
      ],
      "type": "VEC4"
    },
    {
      "bufferView": 1,
      "componentType": 5126,
      "count": 2002,
      "max": [
        0.978463351726532,
        0.9708517789840698
      ],
      "min": [
        0.010833128355443478,
        0.021984733641147614
      ],
      "type": "VEC2"
    },
    {
      "bufferView": 1,
      "byteOffset": 16016,
      "componentType": 5126,
      "count": 2002,
      "max": [
        0.978463351726532,
        0.9708517789840698
      ],
      "min": [
        0.010833128355443478,
        0.021984733641147614
      ],
      "type": "VEC2"
    },
    {
      "bufferView": 0,
      "componentType": 5125,
      "count": 10200,
      "type": "SCALAR"
    }
  ],
  "asset": {
    "extras": {
      "author": "ferofluid (https://sketchfab.com/ferofluid)",
      "license": "CC-BY-4.0 (http://creativecommons.org/licenses/by/4.0/)",
      "source": "https://sketchfab.com/3d-models/adjustable-wrench-26fa5694aa0543829e1ce51038bae007",
      "title": "Adjustable Wrench"
    },
    "generator": "Sketchfab-12.63.0",
    "version": "2.0"
  },
  "bufferViews": [
    {
      "buffer": 0,
      "byteLength": 40800,
      "name": "floatBufferViews",
      "target": 34963
    },
    {
      "buffer": 0,
      "byteLength": 32032,
      "byteOffset": 40800,
      "byteStride": 8,
      "name": "floatBufferViews",
      "target": 34962
    },
    {
      "buffer": 0,
      "byteLength": 48048,
      "byteOffset": 72832,
      "byteStride": 12,
      "name": "floatBufferViews",
      "target": 34962
    },
    {
      "buffer": 0,
      "byteLength": 32032,
      "byteOffset": 120880,
      "byteStride": 16,
      "name": "floatBufferViews",
      "target": 34962
    }
  ],
  "buffers": [
    {
      "byteLength": 152912,
      "uri": "scene.bin"
    }
  ],
  "images": [
    {
      "uri": "textures/wrench_lop_baseColor.png"
    },
    {
      "uri": "textures/wrench_lop_metallicRoughness.png"
    },
    {
      "uri": "textures/wrench_lop_normal.png"
    }
  ],
  "materials": [
    {
      "doubleSided": true,
      "name": "wrench_lop",
      "normalTexture": {
        "index": 2,
        "scale": 0.9766247827
      },
      "pbrMetallicRoughness": {
        "baseColorTexture": {
          "index": 0
        },
        "metallicFactor": 0.5049266695,
        "metallicRoughnessTexture": {
          "index": 1
        },
        "roughnessFactor": 0.8634172356
      }
    }
  ],
  "meshes": [
    {
      "name": "Plane.006_wrench_lop_0",
      "primitives": [
        {
          "attributes": {
            "NORMAL": 1,
            "POSITION": 0,
            "TANGENT": 2,
            "TEXCOORD_0": 3,
            "TEXCOORD_1": 4
          },
          "indices": 5,
          "material": 0,
          "mode": 4
        }
      ]
    }
  ],
  "nodes": [
    {
      "children": [
        1
      ],
      "matrix": [
        0.0006634163437411189,
        0.0,
        0.0,
        0.0,
        0.0,
        1.4730801994680551e-19,
        -0.0006634163437411189,
        0.0,
        0.0,
        0.0006634163437411189,
        1.4730801994680551e-19,
        0.0,
        0.0,
        0.0,
        0.0,
        1.0
      ],
      "name": "Sketchfab_model"
    },
    {
      "children": [
        2
      ],
      "matrix": [
        1.0,
        0.0,
        0.0,
        0.0,
        0.0,
        0.0,
        1.0,
        0.0,
        0.0,
        -1.0,
        0.0,
        0.0,
        0.0,
        0.0,
        0.0,
        1.0
      ],
      "name": "33a3c3d1de444cf782773d470ae109ad.fbx"
    },
    {
      "children": [
        3
      ],
      "name": "RootNode"
    },
    {
      "children": [
        4
      ],
      "matrix": [
        100.0,
        0.0,
        0.0,
        0.0,
        0.0,
        -1.629206793918314e-05,
        -99.99999999999868,
        0.0,
        0.0,
        99.99999999999868,
        -1.629206793918314e-05,
        0.0,
        0.0,
        0.0,
        0.0,
        1.0
      ],
      "name": "Plane.006"
    },
    {
      "mesh": 0,
      "name": "Plane.006_wrench_lop_0"
    }
  ],
  "samplers": [
    {
      "magFilter": 9729,
      "minFilter": 9987,
      "wrapS": 10497,
      "wrapT": 10497
    }
  ],
  "scene": 0,
  "scenes": [
    {
      "name": "Sketchfab_Scene",
      "nodes": [
        0
      ]
    }
  ],
  "textures": [
    {
      "sampler": 0,
      "source": 0
    },
    {
      "sampler": 0,
      "source": 1
    },
    {
      "sampler": 0,
      "source": 2
    }
  ]
}
