<svg width="212" height="212" viewBox="0 0 212 212" fill="currentColor" xmlns="http://www.w3.org/2000/svg">
<path d="M91.5 53C91.5 74.263 74.263 91.5 53 91.5C31.737 91.5 14.5 74.263 14.5 53C14.5 31.737 31.737 14.5 53 14.5C66.6043 14.5 75.578 14.5215 82.0394 15.2394C87.2586 15.8194 88.8327 16.6897 89.1182 16.8818C89.3103 17.1672 90.1806 18.7414 90.7606 23.9606C91.4785 30.422 91.5 39.3957 91.5 53ZM89.1694 16.9202C89.1689 16.9204 89.1609 16.9145 89.147 16.9019C89.163 16.9137 89.1699 16.92 89.1694 16.9202ZM89.0981 16.8531C89.0855 16.8391 89.0796 16.8311 89.0798 16.8306C89.08 16.8301 89.0864 16.8371 89.0981 16.8531Z" stroke="#13BE78" stroke-width="29"/>
<path d="M91.5 159C91.5 180.263 74.263 197.5 53 197.5C39.3957 197.5 30.422 197.478 23.9606 196.761C18.7414 196.181 17.1672 195.31 16.8818 195.118C16.6897 194.833 15.8193 193.258 15.2394 188.039C14.5215 181.578 14.5 172.604 14.5 159C14.5 137.737 31.737 120.5 53 120.5C74.263 120.5 91.5 137.737 91.5 159ZM16.8306 195.08C16.8311 195.08 16.8391 195.085 16.853 195.098C16.837 195.086 16.8301 195.08 16.8306 195.08ZM16.9019 195.147C16.9145 195.161 16.9204 195.169 16.9202 195.169C16.92 195.17 16.9136 195.163 16.9019 195.147Z" stroke="#13BE78" stroke-width="29"/>
<path d="M197.5 53C197.5 74.263 180.263 91.5 159 91.5C137.737 91.5 120.5 74.263 120.5 53C120.5 31.737 137.737 14.5 159 14.5C180.263 14.5 197.5 31.737 197.5 53Z" stroke="#13BE78" stroke-width="29"/>
<path d="M197.5 159C197.5 180.263 180.263 197.5 159 197.5C137.737 197.5 120.5 180.263 120.5 159C120.5 137.737 137.737 120.5 159 120.5C172.604 120.5 181.578 120.522 188.039 121.239C193.259 121.819 194.833 122.69 195.118 122.882C195.31 123.167 196.181 124.741 196.761 129.961C197.478 136.422 197.5 145.396 197.5 159ZM195.169 122.92C195.169 122.92 195.161 122.915 195.147 122.902C195.163 122.914 195.17 122.92 195.169 122.92ZM195.098 122.853C195.085 122.839 195.08 122.831 195.08 122.831C195.08 122.83 195.086 122.837 195.098 122.853Z" stroke="#13BE78" stroke-width="29"/>
</svg>
