<svg width="70" height="50" viewBox="0 0 70 50" fill="none" xmlns="http://www.w3.org/2000/svg">
<circle cx="15" cy="25" r="5" fill="white"/>
<circle cx="5" cy="25" r="5" fill="white"/>
<circle cx="15" cy="15" r="5" fill="white"/>
<circle cx="15" cy="5" r="5" fill="white"/>
<circle cx="25" cy="5" r="5" fill="white"/>
<circle cx="15" cy="35" r="5" fill="white"/>
<circle cx="15" cy="45" r="5" fill="white"/>
<circle cx="25" cy="45" r="5" fill="white"/>
<circle cx="5" cy="5" r="5" transform="matrix(-1 0 0 1 60 20)" fill="white"/>
<circle cx="5" cy="5" r="5" transform="matrix(-1 0 0 1 70 20)" fill="white"/>
<circle cx="5" cy="5" r="5" transform="matrix(-1 0 0 1 60 10)" fill="white"/>
<circle cx="5" cy="5" r="5" transform="matrix(-1 0 0 1 60 0)" fill="white"/>
<circle cx="5" cy="5" r="5" transform="matrix(-1 0 0 1 50 0)" fill="white"/>
<circle cx="5" cy="5" r="5" transform="matrix(-1 0 0 1 60 30)" fill="white"/>
<circle cx="5" cy="5" r="5" transform="matrix(-1 0 0 1 60 40)" fill="white"/>
<circle cx="5" cy="5" r="5" transform="matrix(-1 0 0 1 50 40)" fill="white"/>
</svg>
